<svg xmlns="http://www.w3.org/2000/svg" viewBox="0 0 32 32" width="32" height="32" shape-rendering="crispEdges"><path fill="#0b1020" d="M2 4h1v24h-1zM3 3h1v1h-1zM3 28h1v1h-1zM4 2h24v1h-24zM4 29h24v1h-24zM28 3h1v1h-1zM28 28h1v1h-1zM29 4h1v24h-1z"/><path fill="#3b6fd6" d="M3 4h1v1h-1zM3 8h5v4h-5zM3 13h5v11h-5zM3 5h26v3h-26zM3 12h26v1h-26zM3 24h26v4h-26zM4 3h24v1h-24zM4 28h24v1h-24zM12 13h2v11h-2zM12 8h17v4h-17zM18 16h3v8h-3zM23 13h6v2h-6zM25 15h4v9h-4zM28 4h1v1h-1z"/><path fill="#8cc8f2" d="M4 4h24v1h-24z"/><path fill="#ffffff" d="M8 8h4v4h-4zM8 13h4v11h-4zM14 16h4v8h-4zM14 13h9v2h-9zM14 15h11v1h-11zM21 16h4v8h-4z"/></svg>
