<svg xmlns="http://www.w3.org/2000/svg" viewBox="0 0 32 32" width="32" height="32" shape-rendering="crispEdges"><path fill="#0b1020" d="M2 8h1v17h-1zM3 7h26v1h-26zM3 25h26v1h-26zM29 8h1v17h-1z"/><path fill="#97a1b1" d="M3 8h1v1h-1zM4 9h2v1h-2zM6 10h1v1h-1zM7 11h1v1h-1zM8 12h2v1h-2zM10 13h1v1h-1zM11 14h2v1h-2zM13 15h1v1h-1zM14 16h1v1h-1zM15 17h2v1h-2zM17 16h1v1h-1zM18 15h1v1h-1zM19 14h2v1h-2zM21 13h1v1h-1zM26 9h2v1h-2zM28 8h1v1h-1z"/><path fill="#eef2f7" d="M3 9h1v1h-1zM3 10h3v1h-3zM3 11h4v1h-4zM3 12h5v1h-5zM3 13h7v1h-7zM3 14h8v1h-8zM3 15h10v1h-10zM3 16h11v1h-11zM3 17h12v1h-12zM3 18h26v6h-26zM4 8h24v1h-24zM6 9h20v1h-20zM7 10h15v1h-15zM8 11h14v1h-14zM10 12h12v1h-12zM11 13h10v1h-10zM13 14h6v1h-6zM14 15h4v1h-4zM15 16h2v1h-2zM17 17h12v1h-12zM18 16h11v1h-11zM19 15h10v1h-10zM21 14h1v1h-1zM27 10h2v5h-2zM28 9h1v1h-1z"/><path fill="#e04040" d="M22 11h1v3h-1zM22 10h5v1h-5zM22 14h5v1h-5zM26 11h1v3h-1z"/><path fill="#ffb547" d="M23 11h3v3h-3z"/><path fill="#d3d9e2" d="M3 24h26v1h-26z"/></svg>
